<svg xmlns="http://www.w3.org/2000/svg" xmlns:xlink="http://www.w3.org/1999/xlink" xmlns:lucid="lucid" width="1957" height="1519"><g transform="translate(-89 129)" lucid:page-tab-id="mr.Cwor2zZWo"><path d="M138-18.92a30 30 0 0 1 30-30h385.17a30 30 0 0 1 30 30v175.3a30 30 0 0 1-30 30H168a30 30 0 0 1-30-30zM668-18.92a30 30 0 0 1 30-30h385.17a30 30 0 0 1 30 30v175.3a30 30 0 0 1-30 30H698a30 30 0 0 1-30-30z" stroke="#000" stroke-opacity="0" fill="#c3f7c8"/><path d="M1161.5-18.92a30 30 0 0 1 30-30h385.17a30 30 0 0 1 30 30v175.3a30 30 0 0 1-30 30H1191.5a30 30 0 0 1-30-30z" stroke="#000" stroke-opacity="0" fill="#c3f7c8" filter="url(#a)"/><path d="M108 297.08a6 6 0 0 1 6-6h1908a6 6 0 0 1 6 6v1068a6 6 0 0 1-6 6H114a6 6 0 0 1-6-6z" stroke="#000" stroke-width="2" fill-opacity="0"/><path d="M138 1125.8a30 30 0 0 1 30-30h385.17a30 30 0 0 1 30 30v175.28a30 30 0 0 1-30 30H168a30 30 0 0 1-30-30z" stroke="#000" stroke-opacity="0" fill="#fcfcca" filter="url(#b)"/><path d="M609.6 1125.8a30 30 0 0 1 30-30h385.18a30 30 0 0 1 30 30v175.28a30 30 0 0 1-30 30H639.6a30 30 0 0 1-30-30zM1081.22 1125.8a30 30 0 0 1 30-30h385.17a30 30 0 0 1 30 30v175.28a30 30 0 0 1-30 30H1111.2a30 30 0 0 1-30-30zM1552.83 1125.8a30 30 0 0 1 30-30H1968a30 30 0 0 1 30 30v175.28a30 30 0 0 1-30 30h-385.17a30 30 0 0 1-30-30zM138 870.9a30 30 0 0 1 30-30h385.17a30 30 0 0 1 30 30v175.28a30 30 0 0 1-30 30H168a30 30 0 0 1-30-30z" stroke="#000" stroke-opacity="0" fill="#c3f7c8" filter="url(#b)"/><path d="M609.6 870.9a30 30 0 0 1 30-30h385.18a30 30 0 0 1 30 30v175.28a30 30 0 0 1-30 30H639.6a30 30 0 0 1-30-30z" stroke="#000" stroke-opacity="0" fill="#ffd9d9" filter="url(#b)"/><path d="M1081.22 870.9a30 30 0 0 1 30-30h385.17a30 30 0 0 1 30 30v175.28a30 30 0 0 1-30 30H1111.2a30 30 0 0 1-30-30z" stroke="#000" stroke-opacity="0" fill="#c3f7c8" filter="url(#b)"/><path d="M1552.83 870.9a30 30 0 0 1 30-30H1968a30 30 0 0 1 30 30v175.28a30 30 0 0 1-30 30h-385.17a30 30 0 0 1-30-30z" stroke="#000" stroke-opacity="0" fill="#fcfcca" filter="url(#b)"/><path d="M138 616a30 30 0 0 1 30-30h385.17a30 30 0 0 1 30 30v175.28a30 30 0 0 1-30 30H168a30 30 0 0 1-30-30z" stroke="#000" stroke-opacity="0" fill="#c3f7c8" filter="url(#b)"/><path d="M609.6 616a30 30 0 0 1 30-30h385.18a30 30 0 0 1 30 30v175.28a30 30 0 0 1-30 30H639.6a30 30 0 0 1-30-30z" stroke="#000" stroke-opacity="0" fill="#fcfcca" filter="url(#b)"/><path d="M1081.22 616a30 30 0 0 1 30-30h385.17a30 30 0 0 1 30 30v175.28a30 30 0 0 1-30 30H1111.2a30 30 0 0 1-30-30zM1552.83 616a30 30 0 0 1 30-30H1968a30 30 0 0 1 30 30v175.28a30 30 0 0 1-30 30h-385.17a30 30 0 0 1-30-30z" stroke="#000" stroke-opacity="0" fill="#ffd9d9" filter="url(#b)"/><path d="M138 361.08a30 30 0 0 1 30-30h385.17a30 30 0 0 1 30 30v175.3a30 30 0 0 1-30 30H168a30 30 0 0 1-30-30zM609.6 361.08a30 30 0 0 1 30-30h385.18a30 30 0 0 1 30 30v175.3a30 30 0 0 1-30 30H639.6a30 30 0 0 1-30-30zM1081.22 361.08a30 30 0 0 1 30-30h385.17a30 30 0 0 1 30 30v175.3a30 30 0 0 1-30 30H1111.2a30 30 0 0 1-30-30zM1552.83 361.08a30 30 0 0 1 30-30H1968a30 30 0 0 1 30 30v175.3a30 30 0 0 1-30 30h-385.17a30 30 0 0 1-30-30z" stroke="#000" stroke-opacity="0" fill="#c3f7c8" filter="url(#b)"/><path d="M138 441.38a6 6 0 0 1 6-6h433.17a6 6 0 0 1 6 6V559.6a6 6 0 0 1-6 6H144a6 6 0 0 1-6-6z" stroke="#000" stroke-opacity="0" stroke-width="2" fill="#fff"/><path d="M158.3 528.85a21.07 21.07 0 0 1 21.07-21.08h344.75a21.07 21.07 0 0 1 21.08 21.08 21.07 21.07 0 0 1-21.08 21.07H179.37a21.07 21.07 0 0 1-21.07-21.07z" stroke="#000" fill-opacity="0"/><path d="M351.75 549.42v-41.64M351.75 549.4v.52" stroke="#000" fill="none"/><path d="M352.22 507.8h-.95v-.53h.95z" stroke="#000" stroke-width=".05"/><path d="M415.82 520a6 6 0 0 1 6-6h84.73a6 6 0 0 1 6 6v17.7a6 6 0 0 1-6 6h-84.73a6 6 0 0 1-6-6z" fill="none"/><use xlink:href="#c" transform="matrix(1,0,0,1,415.8237011062083,513.9891259704709) translate(0 21.52777777777778)"/><use xlink:href="#d" transform="matrix(1,0,0,1,415.8237011062083,513.9891259704709) translate(48.014322916666664 21.52777777777778)"/><path d="M183.5 520a6 6 0 0 1 6-6h154.93a6 6 0 0 1 6 6v17.7a6 6 0 0 1-6 6H189.5a6 6 0 0 1-6-6z" fill="none"/><use xlink:href="#e" transform="matrix(1,0,0,1,183.49587899358448,513.9891259704709) translate(0 21.52777777777778)"/><path d="M221.47 464.1c0 11.1-11.87 20.08-26.5 20.08-14.65 0-26.52-9-26.52-20.07 0-11.08 11.87-20.07 26.5-20.07 14.65 0 26.52 9 26.52 20.08z" stroke="#000" fill-opacity="0"/><path d="M207.02 464.1c0 6.67-5.4 12.07-12.06 12.07s-12.06-5.4-12.06-12.06 5.4-12.06 12.06-12.06 12.06 5.4 12.06 12.06zm0 0h-2.4m.8 6.04l-2.1-1.2m-2.33 5.6l-1.22-2.08m-4.82 3.7v-2.4m-6.03.8l1.2-2.1m-5.62-2.32l2.1-1.2m-3.7-4.83h2.4m-.8-6.03l2.1 1.2m2.33-5.6l1.2 2.08m4.83-3.7v2.4m6.03-.8l-1.22 2.1m5.63 2.32l-2.08 1.2m-8.36 4.84v-7.23m0 7.24h4.22" stroke="#000" fill="#fff"/><path d="M247.98 454.3a6 6 0 0 1 6-6h267.54a6 6 0 0 1 6 6v19.6a6 6 0 0 1-6 6H253.98a6 6 0 0 1-6-6z" fill="none"/><use xlink:href="#f" transform="matrix(1,0,0,1,247.97846919655422,448.2994140057799) translate(0 21.52777777777778)"/><use xlink:href="#g" transform="matrix(1,0,0,1,247.97846919655422,448.2994140057799) translate(63.45486111111111 21.52777777777778)"/><use xlink:href="#h" transform="matrix(1,0,0,1,247.97846919655422,448.2994140057799) translate(143.77170138888889 21.52777777777778)"/><path d="M277.12 372.16a21.07 21.07 0 0 1 21.07-21.08H524.1a21.07 21.07 0 0 1 21.08 21.08 21.07 21.07 0 0 1-21.08 21.07H298.2a21.07 21.07 0 0 1-21.08-21.07z" stroke="#000" stroke-opacity="0" fill="#54c45e"/><path d="M277.12 357.08a6 6 0 0 1 6-6H539.2a6 6 0 0 1 6 6v30.15a6 6 0 0 1-6 6H283.12a6 6 0 0 1-6-6z" fill="none"/><use xlink:href="#i" transform="matrix(1,0,0,1,277.11550235395407,351.08333333333394) translate(64.11697048611111 29.58376736111111)"/><use xlink:href="#j" transform="matrix(1,0,0,1,277.11550235395407,351.08333333333394) translate(153.591796875 29.58376736111111)"/><path d="M168.45 357.08a6 6 0 0 1 6-6h28a6 6 0 0 1 6 6V394a6 6 0 0 1-6 6h-28a6 6 0 0 1-6-6z" fill="none"/><use xlink:href="#k" transform="matrix(1,0,0,1,168.45096584401472,351.08333333333394) translate(0 38.75)"/><path d="M609.6 441.38a6 6 0 0 1 6-6h433.18a6 6 0 0 1 6 6V559.6a6 6 0 0 1-6 6H615.6a6 6 0 0 1-6-6z" stroke="#000" stroke-opacity="0" stroke-width="2" fill="#fff"/><path d="M629.9 528.85a21.07 21.07 0 0 1 21.1-21.08H995.7a21.07 21.07 0 0 1 21.08 21.08 21.07 21.07 0 0 1-21.07 21.07H650.98a21.07 21.07 0 0 1-21.07-21.07z" stroke="#000" fill-opacity="0"/><path d="M876.15 549.92v-42.14" stroke="#000" fill="none"/><path d="M876.63 550.42h-.95v-.5h.95zM876.63 507.8h-.95v-.53h.95z" stroke="#000" stroke-width=".05"/><path d="M887.43 520a6 6 0 0 1 6-6h84.73a6 6 0 0 1 6 6v17.7a6 6 0 0 1-6 6h-84.73a6 6 0 0 1-6-6z" fill="none"/><use xlink:href="#c" transform="matrix(1,0,0,1,887.433831928669,513.9891259704709) translate(0 21.52777777777778)"/><use xlink:href="#d" transform="matrix(1,0,0,1,887.433831928669,513.9891259704709) translate(48.014322916666664 21.52777777777778)"/><path d="M790.37 520a6 6 0 0 1 6-6h52.48a6 6 0 0 1 6 6v17.7a6 6 0 0 1-6 6h-52.48a6 6 0 0 1-6-6z" fill="none"/><use xlink:href="#e" transform="matrix(1,0,0,1,790.371287516864,513.9891259704709) translate(0 21.52777777777778)"/><path d="M756.63 549.92v-42.14" stroke="#000" fill="none"/><path d="M757.1 550.42h-.95v-.5h.96zM757.1 507.8h-.95v-.53h.96z" stroke="#000" stroke-width=".05"/><path d="M648 520a6 6 0 0 1 6-6h52.48a6 6 0 0 1 6 6v17.7a6 6 0 0 1-6 6H654a6 6 0 0 1-6-6z" fill="none"/><use xlink:href="#l" transform="matrix(1,0,0,1,648.0000000000073,513.9891259704709) translate(0 21.52777777777778)"/><path d="M693.08 464.1c0 11.1-11.87 20.08-26.5 20.08-14.65 0-26.52-9-26.52-20.07 0-11.08 11.87-20.07 26.5-20.07 14.65 0 26.52 9 26.52 20.08z" stroke="#000" fill-opacity="0"/><path d="M678.63 464.1c0 6.67-5.4 12.07-12.06 12.07s-12.06-5.4-12.06-12.06 5.4-12.06 12.07-12.06c6.66 0 12.06 5.4 12.06 12.06zm0 0h-2.4m.8 6.04l-2.1-1.2m-2.33 5.6l-1.2-2.08m-4.83 3.7v-2.4m-6.03.8l1.2-2.1m-5.62-2.32l2.1-1.2m-3.7-4.83h2.4m-.8-6.03l2.1 1.2m2.32-5.6l1.2 2.08m4.83-3.7v2.4m6.03-.8l-1.2 2.1m5.62 2.32l-2.1 1.2m-8.35 4.84v-7.23m0 7.24h4.22" stroke="#000" fill="#fff"/><path d="M719.6 454.3a6 6 0 0 1 6-6h267.53a6 6 0 0 1 6 6v19.6a6 6 0 0 1-6 6H725.6a6 6 0 0 1-6-6z" fill="none"/><use xlink:href="#f" transform="matrix(1,0,0,1,719.5886000190148,448.2994140057799) translate(0 21.52777777777778)"/><use xlink:href="#g" transform="matrix(1,0,0,1,719.5886000190148,448.2994140057799) translate(63.45486111111111 21.52777777777778)"/><use xlink:href="#h" transform="matrix(1,0,0,1,719.5886000190148,448.2994140057799) translate(143.77170138888889 21.52777777777778)"/><path d="M748.73 372.16a21.07 21.07 0 0 1 21.07-21.08h225.93a21.07 21.07 0 0 1 21.08 21.08 21.07 21.07 0 0 1-21.07 21.07H769.8a21.07 21.07 0 0 1-21.07-21.07z" stroke="#000" stroke-opacity="0" fill="#54c45e"/><path d="M748.73 357.08a6 6 0 0 1 6-6h256.08a6 6 0 0 1 6 6v30.15a6 6 0 0 1-6 6H754.74a6 6 0 0 1-6-6z" fill="none"/><use xlink:href="#i" transform="matrix(1,0,0,1,748.7256331764147,351.08333333333394) translate(64.11697048611111 29.58376736111111)"/><use xlink:href="#j" transform="matrix(1,0,0,1,748.7256331764147,351.08333333333394) translate(153.591796875 29.58376736111111)"/><path d="M640.06 357.08a6 6 0 0 1 6-6h28a6 6 0 0 1 6 6V394a6 6 0 0 1-6 6h-28a6 6 0 0 1-6-6z" fill="none"/><use xlink:href="#k" transform="matrix(1,0,0,1,640.0610966664826,351.08333333333394) translate(0 38.75)"/><path d="M609.6 697.03a6 6 0 0 1 6-6h433.18a6 6 0 0 1 6 6v118.23a6 6 0 0 1-6 6H615.6a6 6 0 0 1-6-6z" stroke="#000" stroke-opacity="0" stroke-width="2" fill="#fff"/><path d="M629.9 784.5a21.07 21.07 0 0 1 21.1-21.07H995.7a21.07 21.07 0 0 1 21.08 21.07 21.07 21.07 0 0 1-21.07 21.08H650.98a21.07 21.07 0 0 1-21.07-21.08z" stroke="#000" fill-opacity="0"/><path d="M823.36 805.08v-41.65M823.36 805.06v.52" stroke="#000" fill="none"/><path d="M823.83 763.44h-.95v-.5h.95z" stroke="#000" stroke-width=".05"/><path d="M887.43 775.64a6 6 0 0 1 6-6h84.73a6 6 0 0 1 6 6v17.72a6 6 0 0 1-6 6h-84.73a6 6 0 0 1-6-6z" fill="none"/><use xlink:href="#c" transform="matrix(1,0,0,1,887.4338319286398,769.6424762267161) translate(0 21.52777777777778)"/><use xlink:href="#d" transform="matrix(1,0,0,1,887.4338319286398,769.6424762267161) translate(48.014322916666664 21.52777777777778)"/><path d="M655.1 775.64a6 6 0 0 1 6-6h154.94a6 6 0 0 1 6 6v17.72a6 6 0 0 1-6 6H661.1a6 6 0 0 1-6-6z" fill="none"/><use xlink:href="#e" transform="matrix(1,0,0,1,655.106009816016,769.6424762267161) translate(0 21.52777777777778)"/><path d="M693.08 719.76c0 11.1-11.87 20.08-26.5 20.08-14.65 0-26.52-9-26.52-20.08 0-11.1 11.87-20.08 26.5-20.08 14.65 0 26.52 9 26.52 20.08z" stroke="#000" fill-opacity="0"/><path d="M678.63 719.76c0 6.66-5.4 12.06-12.06 12.06s-12.06-5.4-12.06-12.06 5.4-12.06 12.07-12.06c6.66 0 12.06 5.4 12.06 12.06zm0 0h-2.4m.8 6.03l-2.1-1.22m-2.33 5.63l-1.2-2.08m-4.83 3.7v-2.4m-6.03.8l1.2-2.1m-5.62-2.33l2.1-1.22m-3.7-4.82h2.4m-.8-6.03l2.1 1.2m2.32-5.62l1.2 2.1m4.83-3.7v2.4m6.03-.8l-1.2 2.1m5.62 2.33l-2.1 1.2m-8.35 4.83v-7.24m0 7.24h4.22" stroke="#000" fill="#fff"/><path d="M719.6 709.95a6 6 0 0 1 6-6h267.53a6 6 0 0 1 6 6v19.6a6 6 0 0 1-6 6H725.6a6 6 0 0 1-6-6z" fill="none"/><use xlink:href="#f" transform="matrix(1,0,0,1,719.5886000189857,703.9527642620251) translate(0 21.52777777777778)"/><use xlink:href="#g" transform="matrix(1,0,0,1,719.5886000189857,703.9527642620251) translate(63.45486111111111 21.52777777777778)"/><use xlink:href="#h" transform="matrix(1,0,0,1,719.5886000189857,703.9527642620251) translate(143.77170138888889 21.52777777777778)"/><path d="M748.73 627.8a21.07 21.07 0 0 1 21.07-21.06h225.93a21.07 21.07 0 0 1 21.08 21.07 21.07 21.07 0 0 1-21.07 21.1H769.8a21.07 21.07 0 0 1-21.07-21.1z" stroke="#000" stroke-opacity="0" fill="#54c45e"/><path d="M748.73 612.74a6 6 0 0 1 6-6h256.08a6 6 0 0 1 6 6v30.14a6 6 0 0 1-6 6H754.74a6 6 0 0 1-6-6z" fill="none"/><use xlink:href="#i" transform="matrix(1,0,0,1,748.7256331763929,606.7366835895791) translate(64.11697048611111 29.58376736111111)"/><use xlink:href="#j" transform="matrix(1,0,0,1,748.7256331763929,606.7366835895791) translate(153.591796875 29.58376736111111)"/><path d="M640.06 612.74a6 6 0 0 1 6-6h28a6 6 0 0 1 6 6v36.92a6 6 0 0 1-6 6h-28a6 6 0 0 1-6-6z" fill="none"/><use xlink:href="#k" transform="matrix(1,0,0,1,640.0610966664535,606.7366835895791) translate(0 38.75)"/><path d="M1081.22 697.88a6 6 0 0 1 6-6h433.17a6 6 0 0 1 6 6V816.1a6 6 0 0 1-6 6H1087.2a6 6 0 0 1-6-6z" stroke="#000" stroke-opacity="0" stroke-width="2" fill="#fff"/><path d="M1101.52 785.35a21.07 21.07 0 0 1 21.08-21.08h344.74a21.07 21.07 0 0 1 21.08 21.08 21.07 21.07 0 0 1-21.08 21.07H1122.6a21.07 21.07 0 0 1-21.08-21.07z" stroke="#000" fill-opacity="0"/><path d="M1294.97 805.92v-41.65M1294.97 805.9v.52" stroke="#000" fill="none"/><path d="M1295.44 764.28h-.95v-.5h.94z" stroke="#000" stroke-width=".05"/><path d="M1359.04 776.5a6 6 0 0 1 6-6h84.73a6 6 0 0 1 6 6v17.7a6 6 0 0 1-6 6h-84.73a6 6 0 0 1-6-6z" fill="none"/><use xlink:href="#c" transform="matrix(1,0,0,1,1359.0439627511005,770.4853129624953) translate(0 21.52777777777778)"/><use xlink:href="#d" transform="matrix(1,0,0,1,1359.0439627511005,770.4853129624953) translate(48.014322916666664 21.52777777777778)"/><path d="M1126.72 776.5a6 6 0 0 1 6-6h154.93a6 6 0 0 1 6 6v17.7a6 6 0 0 1-6 6h-154.93a6 6 0 0 1-6-6z" fill="none"/><use xlink:href="#e" transform="matrix(1,0,0,1,1126.7161406384766,770.4853129624953) translate(0 21.52777777777778)"/><path d="M1164.7 720.6c0 11.1-11.88 20.08-26.52 20.08-14.64 0-26.5-9-26.5-20.08 0-11.1 11.86-20.08 26.5-20.08s26.5 9 26.5 20.08z" stroke="#000" fill-opacity="0"/><path d="M1150.24 720.6c0 6.66-5.4 12.06-12.06 12.06s-12.06-5.4-12.06-12.06 5.4-12.06 12.06-12.06 12.06 5.4 12.06 12.06zm0 0h-2.4m.8 6.03l-2.1-1.2m-2.33 5.62l-1.2-2.1m-4.82 3.7v-2.4m-6.03.8l1.2-2.1m-5.62-2.32l2.1-1.2m-3.7-4.83h2.4m-.8-6.03l2.1 1.2m2.32-5.62l1.2 2.1m4.83-3.7v2.4m6.03-.8l-1.2 2.1m5.63 2.32l-2.1 1.2m-8.35 4.83v-7.24m0 7.24h4.22" stroke="#000" fill="#fff"/><path d="M1191.2 710.8a6 6 0 0 1 6-6h267.54a6 6 0 0 1 6 6v19.6a6 6 0 0 1-6 6H1197.2a6 6 0 0 1-6-6z" fill="none"/><use xlink:href="#f" transform="matrix(1,0,0,1,1191.1987308414464,704.7956009978043) translate(0 21.52777777777778)"/><use xlink:href="#g" transform="matrix(1,0,0,1,1191.1987308414464,704.7956009978043) translate(63.45486111111111 21.52777777777778)"/><use xlink:href="#h" transform="matrix(1,0,0,1,1191.1987308414464,704.7956009978043) translate(143.77170138888889 21.52777777777778)"/><path d="M1220.34 628.65a21.07 21.07 0 0 1 21.07-21.07h225.94a21.07 21.07 0 0 1 21.08 21.07 21.07 21.07 0 0 1-21.08 21.08H1241.4a21.07 21.07 0 0 1-21.06-21.08z" stroke="#000" stroke-opacity="0" fill="#54c45e"/><path d="M1220.34 613.58a6 6 0 0 1 6-6h256.08a6 6 0 0 1 6 6v30.15a6 6 0 0 1-6 6h-256.08a6 6 0 0 1-6-6z" fill="none"/><use xlink:href="#i" transform="matrix(1,0,0,1,1220.3357639988462,607.5795203253583) translate(64.11697048611111 29.58376736111111)"/><use xlink:href="#j" transform="matrix(1,0,0,1,1220.3357639988462,607.5795203253583) translate(153.591796875 29.58376736111111)"/><path d="M1111.67 613.58a6 6 0 0 1 6-6h28a6 6 0 0 1 6 6v36.92a6 6 0 0 1-6 6h-28a6 6 0 0 1-6-6z" fill="none"/><use xlink:href="#k" transform="matrix(1,0,0,1,1111.6712274889069,607.5795203253583) translate(0 38.75)"/><path d="M1081.22 441.38a6 6 0 0 1 6-6h433.17a6 6 0 0 1 6 6V559.6a6 6 0 0 1-6 6H1087.2a6 6 0 0 1-6-6z" stroke="#000" stroke-opacity="0" stroke-width="2" fill="#fff"/><path d="M1101.52 528.85a21.07 21.07 0 0 1 21.08-21.08h344.74a21.07 21.07 0 0 1 21.08 21.08 21.07 21.07 0 0 1-21.08 21.07H1122.6a21.07 21.07 0 0 1-21.08-21.07z" stroke="#000" fill-opacity="0"/><path d="M1294.97 549.42v-41.64M1294.97 549.4v.52" stroke="#000" fill="none"/><path d="M1295.44 507.8h-.95v-.53h.94z" stroke="#000" stroke-width=".05"/><path d="M1359.04 520a6 6 0 0 1 6-6h84.73a6 6 0 0 1 6 6v17.7a6 6 0 0 1-6 6h-84.73a6 6 0 0 1-6-6z" fill="none"/><use xlink:href="#c" transform="matrix(1,0,0,1,1359.0439627511441,513.9891259704709) translate(0 21.52777777777778)"/><use xlink:href="#d" transform="matrix(1,0,0,1,1359.0439627511441,513.9891259704709) translate(48.014322916666664 21.52777777777778)"/><path d="M1126.72 520a6 6 0 0 1 6-6h154.93a6 6 0 0 1 6 6v17.7a6 6 0 0 1-6 6h-154.93a6 6 0 0 1-6-6z" fill="none"/><use xlink:href="#e" transform="matrix(1,0,0,1,1126.7161406385203,513.9891259704709) translate(0 21.52777777777778)"/><path d="M1164.7 464.1c0 11.1-11.88 20.08-26.52 20.08-14.64 0-26.5-9-26.5-20.07 0-11.08 11.86-20.07 26.5-20.07s26.5 9 26.5 20.08z" stroke="#000" fill-opacity="0"/><path d="M1150.24 464.1c0 6.67-5.4 12.07-12.06 12.07s-12.06-5.4-12.06-12.06 5.4-12.06 12.06-12.06 12.06 5.4 12.06 12.06zm0 0h-2.4m.8 6.04l-2.1-1.2m-2.33 5.6l-1.2-2.08m-4.82 3.7v-2.4m-6.03.8l1.2-2.1m-5.62-2.32l2.1-1.2m-3.7-4.83h2.4m-.8-6.03l2.1 1.2m2.32-5.6l1.2 2.08m4.83-3.7v2.4m6.03-.8l-1.2 2.1m5.63 2.32l-2.1 1.2m-8.35 4.84v-7.23m0 7.24h4.22" stroke="#000" fill="#fff"/><path d="M1191.2 454.3a6 6 0 0 1 6-6h267.54a6 6 0 0 1 6 6v19.6a6 6 0 0 1-6 6H1197.2a6 6 0 0 1-6-6z" fill="none"/><use xlink:href="#f" transform="matrix(1,0,0,1,1191.19873084149,448.2994140057799) translate(0 21.52777777777778)"/><use xlink:href="#g" transform="matrix(1,0,0,1,1191.19873084149,448.2994140057799) translate(63.45486111111111 21.52777777777778)"/><use xlink:href="#h" transform="matrix(1,0,0,1,1191.19873084149,448.2994140057799) translate(143.77170138888889 21.52777777777778)"/><path d="M1220.34 372.16a21.07 21.07 0 0 1 21.07-21.08h225.94a21.07 21.07 0 0 1 21.08 21.08 21.07 21.07 0 0 1-21.08 21.07H1241.4a21.07 21.07 0 0 1-21.06-21.07z" stroke="#000" stroke-opacity="0" fill="#e81313"/><path d="M1220.34 357.08a6 6 0 0 1 6-6h256.08a6 6 0 0 1 6 6v30.15a6 6 0 0 1-6 6h-256.08a6 6 0 0 1-6-6z" fill="none"/><use xlink:href="#i" transform="matrix(1,0,0,1,1220.33576399889,351.08333333333394) translate(47.05967881944446 29.58376736111111)"/><use xlink:href="#m" transform="matrix(1,0,0,1,1220.33576399889,351.08333333333394) translate(136.53450520833331 29.58376736111111)"/><path d="M1111.67 357.08a6 6 0 0 1 6-6h28a6 6 0 0 1 6 6V394a6 6 0 0 1-6 6h-28a6 6 0 0 1-6-6z" fill="none"/><use xlink:href="#k" transform="matrix(1,0,0,1,1111.6712274889505,351.08333333333394) translate(0 38.75)"/><path d="M138 61.38a6 6 0 0 1 6-6h433.17a6 6 0 0 1 6 6V179.6a6 6 0 0 1-6 6H144a6 6 0 0 1-6-6z" stroke="#000" stroke-opacity="0" stroke-width="2" fill="#fff"/><path d="M158.3 148.85a21.07 21.07 0 0 1 21.07-21.07h344.75a21.07 21.07 0 0 1 21.08 21.07 21.07 21.07 0 0 1-21.08 21.07H179.37a21.07 21.07 0 0 1-21.07-21.07z" stroke="#000" fill-opacity="0"/><path d="M351.75 169.42v-41.64M351.75 169.4v.52" stroke="#000" fill="none"/><path d="M352.22 127.8h-.95v-.52h.95z" stroke="#000" stroke-width=".05"/><path d="M415.82 140a6 6 0 0 1 6-6h84.73a6 6 0 0 1 6 6v17.7a6 6 0 0 1-6 6h-84.73a6 6 0 0 1-6-6z" fill="none"/><use xlink:href="#c" transform="matrix(1,0,0,1,415.82370110619377,133.98912597047092) translate(0 21.52777777777778)"/><use xlink:href="#d" transform="matrix(1,0,0,1,415.82370110619377,133.98912597047092) translate(48.014322916666664 21.52777777777778)"/><path d="M183.5 140a6 6 0 0 1 6-6h154.93a6 6 0 0 1 6 6v17.7a6 6 0 0 1-6 6H189.5a6 6 0 0 1-6-6z" fill="none"/><use xlink:href="#e" transform="matrix(1,0,0,1,183.49587899356993,133.98912597047092) translate(0 21.52777777777778)"/><path d="M221.47 84.1c0 11.1-11.87 20.08-26.5 20.08-14.65 0-26.52-9-26.52-20.08 0-11.08 11.87-20.07 26.5-20.07 14.65 0 26.52 9 26.52 20.08z" stroke="#000" fill-opacity="0"/><path d="M207.02 84.1c0 6.67-5.4 12.07-12.06 12.07s-12.06-5.4-12.06-12.06 5.4-12.06 12.06-12.06 12.06 5.4 12.06 12.06zm0 0h-2.4m.8 6.04l-2.1-1.2m-2.33 5.6l-1.22-2.08m-4.82 3.7v-2.4m-6.03.8l1.2-2.1m-5.62-2.32l2.1-1.2m-3.7-4.83h2.4m-.8-6.03l2.1 1.2m2.33-5.6l1.2 2.08m4.83-3.7v2.4m6.03-.8l-1.22 2.1m5.63 2.32l-2.08 1.2m-8.36 4.84v-7.23m0 7.23h4.22" stroke="#000" fill="#fff"/><path d="M247.98 74.3a6 6 0 0 1 6-6h267.54a6 6 0 0 1 6 6v19.6a6 6 0 0 1-6 6H253.98a6 6 0 0 1-6-6z" fill="none"/><use xlink:href="#f" transform="matrix(1,0,0,1,247.97846919653966,68.29941400577991) translate(0 21.52777777777778)"/><use xlink:href="#g" transform="matrix(1,0,0,1,247.97846919653966,68.29941400577991) translate(63.45486111111111 21.52777777777778)"/><use xlink:href="#h" transform="matrix(1,0,0,1,247.97846919653966,68.29941400577991) translate(143.77170138888889 21.52777777777778)"/><path d="M315.1-27.84a21.07 21.07 0 0 1 21.06-21.08H562.1a21.07 21.07 0 0 1 21.07 21.08A21.07 21.07 0 0 1 562.1-6.77H336.16a21.07 21.07 0 0 1-21.07-21.07z" stroke="#000" stroke-opacity="0" fill="#fff"/><path d="M315.1-42.92a6 6 0 0 1 6-6h256.07a6 6 0 0 1 6 6v30.15a6 6 0 0 1-6 6H321.1a6 6 0 0 1-6-6z" fill="none"/><use xlink:href="#n" transform="matrix(1,0,0,1,315.08892477273184,-48.91666666666606) translate(63.48763020833333 29.58376736111111)"/><use xlink:href="#o" transform="matrix(1,0,0,1,315.08892477273184,-48.91666666666606) translate(148.99110243055554 29.58376736111111)"/><path d="M168.45-22.92a6 6 0 0 1 6-6h28a6 6 0 0 1 6 6V14a6 6 0 0 1-6 6h-28a6 6 0 0 1-6-6z" fill="none"/><use xlink:href="#k" transform="matrix(1,0,0,1,168.45096584400744,-28.91666666666606) translate(0 38.75)"/><path d="M688.3 148.85a21.07 21.07 0 0 1 21.08-21.07h344.74a21.07 21.07 0 0 1 21.08 21.07 21.07 21.07 0 0 1-21.08 21.07H709.38a21.07 21.07 0 0 1-21.08-21.07z" stroke="#000" fill-opacity="0"/><path d="M881.75 169.42v-41.64M881.75 169.4v.52" stroke="#000" fill="none"/><path d="M882.22 127.8h-.95v-.52h.95z" stroke="#000" stroke-width=".05"/><path d="M945.82 140a6 6 0 0 1 6-6h84.73a6 6 0 0 1 6 6v17.7a6 6 0 0 1-6 6h-84.73a6 6 0 0 1-6-6z" fill="none"/><use xlink:href="#c" transform="matrix(1,0,0,1,945.8237011062083,133.98912597047092) translate(0 21.52777777777778)"/><use xlink:href="#d" transform="matrix(1,0,0,1,945.8237011062083,133.98912597047092) translate(48.014322916666664 21.52777777777778)"/><path d="M713.5 140a6 6 0 0 1 6-6h154.93a6 6 0 0 1 6 6v17.7a6 6 0 0 1-6 6H719.5a6 6 0 0 1-6-6z" fill="none"/><use xlink:href="#e" transform="matrix(1,0,0,1,713.4958789935845,133.98912597047092) translate(0 21.52777777777778)"/><path d="M751.47 84.1c0 11.1-11.87 20.08-26.5 20.08-14.65 0-26.52-9-26.52-20.08 0-11.08 11.87-20.07 26.5-20.07 14.65 0 26.52 9 26.52 20.08z" stroke="#000" fill-opacity="0"/><path d="M737.02 84.1c0 6.67-5.4 12.07-12.06 12.07s-12.06-5.4-12.06-12.06 5.4-12.06 12.06-12.06 12.06 5.4 12.06 12.06zm0 0h-2.4m.8 6.04l-2.1-1.2m-2.33 5.6l-1.22-2.08m-4.82 3.7v-2.4m-6.03.8l1.2-2.1m-5.62-2.32l2.1-1.2m-3.7-4.83h2.4m-.8-6.03l2.1 1.2m2.33-5.6l1.2 2.08m4.83-3.7v2.4m6.03-.8l-1.22 2.1m5.63 2.32l-2.08 1.2m-8.36 4.84v-7.23m0 7.23h4.22" stroke="#000" fill="#fff"/><path d="M777.98 74.3a6 6 0 0 1 6-6h267.54a6 6 0 0 1 6 6v19.6a6 6 0 0 1-6 6H783.98a6 6 0 0 1-6-6z" fill="none"/><use xlink:href="#f" transform="matrix(1,0,0,1,777.9784691965542,68.29941400577991) translate(0 21.52777777777778)"/><use xlink:href="#g" transform="matrix(1,0,0,1,777.9784691965542,68.29941400577991) translate(63.45486111111111 21.52777777777778)"/><use xlink:href="#h" transform="matrix(1,0,0,1,777.9784691965542,68.29941400577991) translate(143.77170138888889 21.52777777777778)"/><path d="M845.1-27.84a21.07 21.07 0 0 1 21.06-21.08h225.94a21.07 21.07 0 0 1 21.07 21.08 21.07 21.07 0 0 1-21.07 21.07H866.16a21.07 21.07 0 0 1-21.07-21.07z" stroke="#000" stroke-opacity="0" fill="#fff"/><path d="M845.1-42.92a6 6 0 0 1 6-6h256.07a6 6 0 0 1 6 6v30.15a6 6 0 0 1-6 6H851.1a6 6 0 0 1-6-6z" fill="none"/><use xlink:href="#n" transform="matrix(1,0,0,1,845.0889247727537,-48.91666666666606) translate(63.48763020833333 29.58376736111111)"/><use xlink:href="#o" transform="matrix(1,0,0,1,845.0889247727537,-48.91666666666606) translate(148.99110243055554 29.58376736111111)"/><path d="M698.45-22.92a6 6 0 0 1 6-6h28a6 6 0 0 1 6 6V14a6 6 0 0 1-6 6h-28a6 6 0 0 1-6-6z" fill="none"/><use xlink:href="#k" transform="matrix(1,0,0,1,698.450965844022,-28.91666666666606) translate(0 38.75)"/><path d="M1338.6-27.84a21.07 21.07 0 0 1 21.07-21.08h225.93a21.07 21.07 0 0 1 21.07 21.08 21.07 21.07 0 0 1-21.07 21.07h-225.93a21.07 21.07 0 0 1-21.08-21.07z" stroke="#000" stroke-opacity="0" fill="#fff"/><path d="M1338.6-42.92a6 6 0 0 1 6-6h256.07a6 6 0 0 1 6 6v30.15a6 6 0 0 1-6 6H1344.6a6 6 0 0 1-6-6z" fill="none"/><use xlink:href="#n" transform="matrix(1,0,0,1,1338.5930457791692,-48.91666666666606) translate(63.48763020833333 29.58376736111111)"/><use xlink:href="#o" transform="matrix(1,0,0,1,1338.5930457791692,-48.91666666666606) translate(148.99110243055554 29.58376736111111)"/><path d="M1191.95-22.92a6 6 0 0 1 6-6h28a6 6 0 0 1 6 6V14a6 6 0 0 1-6 6h-28a6 6 0 0 1-6-6z" fill="none"/><use xlink:href="#k" transform="matrix(1,0,0,1,1191.9550868504448,-28.91666666666606) translate(0 38.75)"/><path d="M1180.5 51.08h135.72v40H1180.5zM1316.22 51.08h135.73v40h-135.73z" fill="#f2f3f5"/><path d="M1451.95 51.08h135.74v40h-135.75z" fill="#f2f3f5"/><path d="M1180.5 91.08h135.72v40H1180.5zM1316.22 91.08h135.73v40h-135.73z" fill="#fff"/><path d="M1451.95 91.08h135.74v40h-135.75zM1180.5 131.08h135.72v40H1180.5zM1316.22 131.08h135.73v40h-135.73z" fill="#fff"/><path d="M1451.95 131.08h135.74v40h-135.75z" fill="#fff"/><path d="M1180.5 51.08v40M1180.5 51.08h135.72M1316.22 51.08v40M1316.22 51.08h135.73M1451.95 51.08v40M1587.7 51.08v40M1451.95 51.08h135.74M1180.5 91.08v40M1180.5 91.08h135.72M1316.22 91.08v40M1316.22 91.08h135.73M1451.95 91.08v40M1587.7 91.08v40M1451.95 91.08h135.74M1180.5 131.08v40M1180.5 131.08h135.72M1180.5 171.08h135.72M1316.22 131.08v40M1316.22 131.08h135.73M1316.22 171.08h135.73M1451.95 131.08v40M1587.7 131.08v40M1451.95 131.08h135.74M1451.95 171.08h135.74" stroke="#000" fill="none"/><g><use xlink:href="#p" transform="matrix(1,0,0,1,1185.4914574783543,56.08333333333394) translate(46.333333333333336 23.08376736111111)"/></g><g><use xlink:href="#q" transform="matrix(1,0,0,1,1321.2231023412787,56.08333333333394) translate(25.966579861111114 23.08376736111111)"/></g><g><use xlink:href="#r" transform="matrix(1,0,0,1,1456.9547472042032,56.08333333333394) translate(13.857204861111114 23.08376736111111)"/></g><g><use xlink:href="#s" transform="matrix(1,0,0,1,1185.4914574783543,96.08333333333394) translate(34.39756944444444 23.08376736111111)"/></g><g><use xlink:href="#t" transform="matrix(1,0,0,1,1321.2231023412787,96.08333333333394) translate(31.836805555555557 23.08376736111111)"/></g><g><use xlink:href="#u" transform="matrix(1,0,0,1,1456.9547472042032,96.08333333333394) translate(54.06987847222222 23.08376736111111)"/></g><g><use xlink:href="#v" transform="matrix(1,0,0,1,1185.4914574783543,136.08333333333394) translate(40.09418402777778 23.08376736111111)"/></g><g><use xlink:href="#w" transform="matrix(1,0,0,1,1321.2231023412787,136.08333333333394) translate(7.684027777777786 23.08376736111111)"/><use xlink:href="#x" transform="matrix(1,0,0,1,1321.2231023412787,136.08333333333394) translate(47.918402777777786 23.08376736111111)"/><use xlink:href="#y" transform="matrix(1,0,0,1,1321.2231023412787,136.08333333333394) translate(100.97829861111111 23.08376736111111)"/></g><g><use xlink:href="#z" transform="matrix(1,0,0,1,1456.9547472042032,136.08333333333394) translate(0 23.08376736111111)"/></g><defs><filter id="a" filterUnits="objectBoundingBox" x="-.02" y="-.02" width="1.04" height="1.08"><feOffset result="offOut" in="SourceAlpha" dy="6"/><feGaussianBlur result="blurOut" in="offOut" stdDeviation="5"/><feColorMatrix result="colorOut" in="blurOut" values="0 0 0 0 0 0 0 0 0 0 0 0 0 0 0 0 0 0 0.5019607843137255 0"/><feBlend in="SourceGraphic" in2="colorOut"/></filter><filter id="b" filterUnits="objectBoundingBox" x="-.01" y="-.02" width="1.04" height="1.08"><feOffset result="offOut" in="SourceAlpha" dx="6.33" dy="4.89"/><feGaussianBlur result="blurOut" in="offOut" stdDeviation="5"/><feColorMatrix result="colorOut" in="blurOut" values="0 0 0 0 0 0 0 0 0 0 0 0 0 0 0 0 0 0 0.5019607843137255 0"/><feBlend in="SourceGraphic" in2="colorOut"/></filter><path d="M635 20c-292 0-500-160-510-396h192c11 142 145 229 315 229 187 0 323-105 323-260 0-161-125-274-346-274H488v-165h121c174 0 294-100 294-254 0-148-104-245-266-245-152 0-291 85-297 230H157c8-234 222-395 484-395 278 0 448 188 448 400 0 168-95 291-247 336v12c190 31 301 169 301 357 0 244-216 425-508 425" id="A"/><path d="M646 20c-332 0-524-278-524-764 0-483 194-766 524-766s524 283 524 766c0 485-191 764-524 764zm0-166c218 0 341-220 341-598 0-380-123-601-341-601s-341 222-341 601c0 378 123 598 341 598" id="B"/><g id="c"><path fill-opacity="0" d="M-1-22.5h50V6.4H-1z"/><use transform="matrix(0.010850694444444444,0,0,0.010850694444444444,0,0)" xlink:href="#A"/><use transform="matrix(0.010850694444444444,0,0,0.010850694444444444,13.726128472222221,0)" xlink:href="#B"/><use transform="matrix(0.010850694444444444,0,0,0.010850694444444444,27.745225694444443,0)" xlink:href="#B"/></g><path d="M158 0v-1490h180v865h22l478-493h223L593-638 1096 0H865L456-523 338-412V0H158" id="C"/><path d="M158 0v-1118h174v172h12c41-113 157-188 290-188 26 0 70 2 91 3v181c-11-2-60-10-108-10-161 0-279 109-279 260V0H158" id="D"/><g id="d"><path fill-opacity="0" d="M-1-22.5h22.6V6.4H-1z"/><use transform="matrix(0.010850694444444444,0,0,0.010850694444444444,0,0)" xlink:href="#C"/><use transform="matrix(0.010850694444444444,0,0,0.010850694444444444,12.196180555555555,0)" xlink:href="#D"/></g><path d="M180 0v-1490h528c311 0 458 177 458 395 0 191-114 278-244 313v14c139 9 302 137 302 371 0 225-148 397-499 397H180zm190-168h350c232 0 321-102 321-231 0-149-120-277-311-277H370v508zm0-668h328c160 0 286-101 286-255 0-129-87-231-280-231H370v486" id="E"/><path d="M628 24c-324 0-524-230-524-574 0-343 198-582 503-582 237 0 487 146 487 559v75H286c9 234 145 362 343 362 132 0 231-58 273-172l174 48C1024-91 857 24 628 24zM287-650h624c-17-190-120-322-304-322-192 0-309 151-320 322" id="F"/><path d="M338-1490V0H158v-1490h180" id="G"/><path d="M613 24C490 24 382-14 299-82L190 45 83-45l121-142c-64-96-100-220-100-365 0-350 205-580 509-580 121 0 227 36 310 102l114-133 106 90-124 146c67 97 105 225 105 375 0 345-206 576-511 576zm0-161c309 7 392-383 284-647L409-212c52 47 119 75 204 75zM328-332l485-568c-51-45-117-71-200-71-299-8-387 375-285 639" id="H"/><path d="M677 24c-213 0-288-135-325-197h-20V0H158v-1490h180v551h14c37-59 106-193 324-193 279 0 474 222 474 576 0 356-194 580-473 580zm-27-161c209 0 317-186 317-421 0-232-105-413-317-413-206 0-314 166-314 413 0 249 111 421 314 421" id="I"/><g id="e"><path fill-opacity="0" d="M-1-22.5h61.8V6.4H-1z"/><use transform="matrix(0.010850694444444444,0,0,0.010850694444444444,0,0)" xlink:href="#E"/><use transform="matrix(0.010850694444444444,0,0,0.010850694444444444,14.539930555555555,0)" xlink:href="#F"/><use transform="matrix(0.010850694444444444,0,0,0.010850694444444444,27.49565972222222,0)" xlink:href="#G"/><use transform="matrix(0.010850694444444444,0,0,0.010850694444444444,32.877604166666664,0)" xlink:href="#H"/><use transform="matrix(0.010850694444444444,0,0,0.010850694444444444,46.20225694444444,0)" xlink:href="#I"/></g><path d="M653-1490V0H466v-1314h-10L96-1047v-204l324-239h233" id="J"/><path d="M295 13c-75 0-135-60-135-135s60-135 135-135 135 60 135 135S370 13 295 13zm0-809c-75 0-135-60-135-135s60-135 135-135 135 60 135 135-60 135-135 135" id="K"/><g id="f"><path fill-opacity="0" d="M-1-22.5h65.5V6.4H-1z"/><use transform="matrix(0.010850694444444444,0,0,0.010850694444444444,0,0)" xlink:href="#J"/><use transform="matrix(0.010850694444444444,0,0,0.010850694444444444,9.038628472222221,0)" xlink:href="#B"/><use transform="matrix(0.010850694444444444,0,0,0.010850694444444444,23.057725694444443,0)" xlink:href="#K"/><use transform="matrix(0.010850694444444444,0,0,0.010850694444444444,29.459635416666664,0)" xlink:href="#A"/><use transform="matrix(0.010850694444444444,0,0,0.010850694444444444,43.185763888888886,0)" xlink:href="#B"/></g><path d="M180 0v-1490h190v644h782v-644h190V0h-190v-678H370V0H180" id="L"/><path d="M471 26C259 26 90-98 90-318c0-256 228-303 435-329 202-27 287-16 287-108 0-139-79-219-234-219-161 0-248 86-283 164l-173-57c86-203 278-265 451-265 150 0 419 46 419 395V0H815v-152h-12C765-73 660 26 471 26zm31-159c199 0 310-134 310-271v-155c-30 35-226 55-295 64-131 17-246 59-246 186 0 116 97 176 231 176" id="M"/><path d="M338-670V0H158v-1118h173l1 207c72-158 192-221 342-221 226 0 378 139 378 422V0H872v-695c0-172-96-275-252-275-161 0-282 109-282 300" id="N"/><path d="M577 24c-279 0-473-224-473-580 0-354 195-576 474-576 218 0 287 134 324 193h14v-551h180V0H922v-173h-20C865-111 790 24 577 24zm27-161c203 0 314-172 314-421 0-247-108-413-314-413-212 0-317 181-317 413 0 235 108 421 317 421" id="O"/><g id="g"><path fill-opacity="0" d="M-1-22.5h82.3V6.4H-1z"/><use transform="matrix(0.010850694444444444,0,0,0.010850694444444444,0,0)" xlink:href="#L"/><use transform="matrix(0.010850694444444444,0,0,0.010850694444444444,16.514756944444443,0)" xlink:href="#M"/><use transform="matrix(0.010850694444444444,0,0,0.010850694444444444,28.993055555555554,0)" xlink:href="#N"/><use transform="matrix(0.010850694444444444,0,0,0.010850694444444444,42.12239583333333,0)" xlink:href="#O"/><use transform="matrix(0.010850694444444444,0,0,0.010850694444444444,55.72916666666666,0)" xlink:href="#G"/><use transform="matrix(0.010850694444444444,0,0,0.010850694444444444,61.1111111111111,0)" xlink:href="#F"/></g><path d="M52 0l541-1490h220L1361 0h-200l-149-416H398L254 0H52zm404-582h497c-103-290-145-390-251-756-108 377-145 460-246 756" id="P"/><g id="h"><path fill-opacity="0" d="M-1-22.5h61.8V6.4H-1z"/><use transform="matrix(0.010850694444444444,0,0,0.010850694444444444,0,0)" xlink:href="#P"/><use transform="matrix(0.010850694444444444,0,0,0.010850694444444444,15.33203125,0)" xlink:href="#G"/><use transform="matrix(0.010850694444444444,0,0,0.010850694444444444,20.713975694444443,0)" xlink:href="#F"/><use transform="matrix(0.010850694444444444,0,0,0.010850694444444444,33.66970486111111,0)" xlink:href="#N"/><use transform="matrix(0.010850694444444444,0,0,0.010850694444444444,46.799045138888886,0)" xlink:href="#F"/></g><path d="M180 0v-1490h270l367 940c28 72 75 218 110 339 35-117 81-264 110-339l362-940h271V0h-187c2-448-5-837 7-1287-157 497-311 829-483 1287H842C666-458 514-784 354-1284c12 438 5 843 7 1284H180" id="Q"/><path d="M158 0v-1118h180V0H158zm91-1301c-68 0-125-53-125-119s57-119 125-119c69 0 126 53 126 119s-57 119-126 119" id="R"/><path d="M613 24c-304 0-509-231-509-576 0-350 205-580 509-580 216 0 392 114 453 309l-173 49c-33-115-133-197-280-197-223 0-326 196-326 419 0 220 103 415 326 415 150 0 252-85 285-206l172 49C1010-95 832 24 613 24" id="S"/><g id="i"><path fill-opacity="0" d="M-1-22.5h91.5V6.4H-1z"/><use transform="matrix(0.010850694444444444,0,0,0.010850694444444444,0,0)" xlink:href="#Q"/><use transform="matrix(0.010850694444444444,0,0,0.010850694444444444,20.07378472222222,0)" xlink:href="#F"/><use transform="matrix(0.010850694444444444,0,0,0.010850694444444444,33.029513888888886,0)" xlink:href="#O"/><use transform="matrix(0.010850694444444444,0,0,0.010850694444444444,46.63628472222221,0)" xlink:href="#R"/><use transform="matrix(0.010850694444444444,0,0,0.010850694444444444,52.01822916666666,0)" xlink:href="#S"/><use transform="matrix(0.010850694444444444,0,0,0.010850694444444444,64.71354166666666,0)" xlink:href="#R"/><use transform="matrix(0.010850694444444444,0,0,0.010850694444444444,70.0954861111111,0)" xlink:href="#N"/></g><path d="M611 442c-248 0-391-105-460-228l146-94c47 65 117 165 314 165 178 0 307-82 307-266v-224h-17C863-141 792-18 576-18c-268 0-472-195-472-546 0-346 197-568 476-568 216 0 288 133 326 193h17v-179h175V29c0 289-215 413-487 413zm-5-620c203 0 314-146 314-390 0-237-108-403-314-403-213 0-319 180-319 403 0 230 109 390 319 390" id="T"/><path d="M481 0L54-1118h197c107 314 236 620 325 951 87-331 217-637 324-951h197L670 0H481" id="U"/><path d="M598-1118v154H368v674c0 100 37 144 132 144 23 0 62-6 92-12L629-6c-37 13-88 20-134 20-193 0-307-107-307-290v-688H20v-154h168v-266h180v266h230" id="V"/><g id="j"><path fill-opacity="0" d="M-1-22.5h53.3V6.4H-1z"/><use transform="matrix(0.010850694444444444,0,0,0.010850694444444444,0,0)" xlink:href="#T"/><use transform="matrix(0.010850694444444444,0,0,0.010850694444444444,13.628472222222221,0)" xlink:href="#R"/><use transform="matrix(0.010850694444444444,0,0,0.010850694444444444,19.010416666666664,0)" xlink:href="#U"/><use transform="matrix(0.010850694444444444,0,0,0.010850694444444444,31.065538194444443,0)" xlink:href="#F"/><use transform="matrix(0.010850694444444444,0,0,0.010850694444444444,44.02126736111111,0)" xlink:href="#V"/></g><g id="k"><path fill-opacity="0" d="M-1-39.8h29.6v50.4H-1z"/><use transform="matrix(0.01953125,0,0,0.01953125,0,0)" xlink:href="#P"/></g><path d="M180 0v-1490h190v1322h690V0H180" id="W"/><path d="M538 24C308 24 148-78 108-271l171-41c32 123 123 178 257 178 156 0 256-77 256-169 0-77-54-128-164-154l-186-44c-203-48-300-148-300-305 0-192 176-326 414-326 230 0 351 112 402 269l-163 42c-31-80-94-158-238-158-133 0-233 69-233 162 0 83 57 129 188 160l169 40c203 48 298 149 298 302 0 196-179 339-441 339" id="X"/><g id="l"><path fill-opacity="0" d="M-1-22.5H99.3V6.4H-1z"/><use transform="matrix(0.010850694444444444,0,0,0.010850694444444444,0,0)" xlink:href="#W"/><use transform="matrix(0.010850694444444444,0,0,0.010850694444444444,12.565104166666666,0)" xlink:href="#F"/><use transform="matrix(0.010850694444444444,0,0,0.010850694444444444,25.520833333333332,0)" xlink:href="#O"/><use transform="matrix(0.010850694444444444,0,0,0.010850694444444444,39.127604166666664,0)" xlink:href="#X"/><use transform="matrix(0.010850694444444444,0,0,0.010850694444444444,50.85720486111111,0)" xlink:href="#M"/><use transform="matrix(0.010850694444444444,0,0,0.010850694444444444,63.33550347222221,0)" xlink:href="#T"/><use transform="matrix(0.010850694444444444,0,0,0.010850694444444444,76.96397569444443,0)" xlink:href="#F"/><use transform="matrix(0.010850694444444444,0,0,0.010850694444444444,89.91970486111111,0)" xlink:href="#D"/></g><path d="M158 0v-1118h175l1 205c55-151 181-225 313-225 147 0 245 90 285 228 53-141 190-228 352-228 194 0 352 125 352 384V0h-181v-749c0-161-105-225-225-225-151 0-243 103-243 244V0H807v-767c0-124-93-207-219-207-131 0-250 92-250 270V0H158" id="Y"/><g id="m"><path fill-opacity="0" d="M-1-22.5h87.4V6.4H-1z"/><use transform="matrix(0.010850694444444444,0,0,0.010850694444444444,0,0)" xlink:href="#Y"/><use transform="matrix(0.010850694444444444,0,0,0.010850694444444444,19.466145833333332,0)" xlink:href="#M"/><use transform="matrix(0.010850694444444444,0,0,0.010850694444444444,31.944444444444443,0)" xlink:href="#N"/><use transform="matrix(0.010850694444444444,0,0,0.010850694444444444,45.07378472222222,0)" xlink:href="#T"/><use transform="matrix(0.010850694444444444,0,0,0.010850694444444444,58.70225694444444,0)" xlink:href="#G"/><use transform="matrix(0.010850694444444444,0,0,0.010850694444444444,64.08420138888889,0)" xlink:href="#F"/><use transform="matrix(0.010850694444444444,0,0,0.010850694444444444,77.03993055555556,0)" xlink:href="#D"/></g><path d="M180 0v-1490h510c348 0 508 209 508 474 0 266-160 477-507 477H370V0H180zm190-706h312c236 0 327-133 327-310 0-176-91-307-329-307H370v617" id="Z"/><path d="M180 0v-1490h224l606 953c40 63 108 177 176 312-27-437-7-821-13-1265h190V0h-226C860-448 622-778 356-1262c27 476 11 792 15 1262H180" id="aa"/><path d="M798-719v166H144v-166h654" id="ab"/><path d="M98-1322v-168h1126v168H757V0H567v-1322H98" id="ac"/><g id="n"><path fill-opacity="0" d="M-1-22.5h87.5V6.4H-1z"/><use transform="matrix(0.010850694444444444,0,0,0.010850694444444444,0,0)" xlink:href="#Z"/><use transform="matrix(0.010850694444444444,0,0,0.010850694444444444,14.192708333333332,0)" xlink:href="#aa"/><use transform="matrix(0.010850694444444444,0,0,0.010850694444444444,30.93532986111111,0)" xlink:href="#ab"/><use transform="matrix(0.010850694444444444,0,0,0.010850694444444444,39.518229166666664,0)" xlink:href="#ac"/><use transform="matrix(0.010850694444444444,0,0,0.010850694444444444,53.86284722222222,0)" xlink:href="#R"/><use transform="matrix(0.010850694444444444,0,0,0.010850694444444444,59.244791666666664,0)" xlink:href="#O"/><use transform="matrix(0.010850694444444444,0,0,0.010850694444444444,72.8515625,0)" xlink:href="#K"/></g><path d="M154 0v-137l495-537c165-179 249-281 249-418 0-156-121-253-280-253-170 0-278 110-278 278H158c0-264 200-443 465-443 266 0 455 183 455 416 0 161-73 288-336 568L416-179v12h687V0H154" id="ad"/><path d="M626 20c-262 0-458-168-468-396h184c12 133 134 229 284 229 180 0 311-137 311-326 0-192-136-335-323-335-92 0-196 33-255 78l-178-22 88-738h784v167H429l-51 435h8c61-51 160-87 263-87 273 0 474 211 474 499 0 286-210 496-497 496" id="ae"/><g id="o"><path fill-opacity="0" d="M-1-22.5h58.5V6.4H-1z"/><use transform="matrix(0.010850694444444444,0,0,0.010850694444444444,0,0)" xlink:href="#B"/><use transform="matrix(0.010850694444444444,0,0,0.010850694444444444,14.019097222222221,0)" xlink:href="#ad"/><use transform="matrix(0.010850694444444444,0,0,0.010850694444444444,27.571614583333332,0)" xlink:href="#K"/><use transform="matrix(0.010850694444444444,0,0,0.010850694444444444,33.97352430555556,0)" xlink:href="#J"/><use transform="matrix(0.010850694444444444,0,0,0.010850694444444444,43.01215277777778,0)" xlink:href="#ae"/></g><g id="p"><use transform="matrix(0.010850694444444444,0,0,0.010850694444444444,0,0)" xlink:href="#ac"/><use transform="matrix(0.010850694444444444,0,0,0.010850694444444444,14.344618055555555,0)" xlink:href="#R"/><use transform="matrix(0.010850694444444444,0,0,0.010850694444444444,19.7265625,0)" xlink:href="#O"/></g><g id="q"><use transform="matrix(0.010850694444444444,0,0,0.010850694444444444,0,0)" xlink:href="#L"/><use transform="matrix(0.010850694444444444,0,0,0.010850694444444444,16.514756944444443,0)" xlink:href="#M"/><use transform="matrix(0.010850694444444444,0,0,0.010850694444444444,28.993055555555554,0)" xlink:href="#N"/><use transform="matrix(0.010850694444444444,0,0,0.010850694444444444,42.12239583333333,0)" xlink:href="#O"/><use transform="matrix(0.010850694444444444,0,0,0.010850694444444444,55.72916666666666,0)" xlink:href="#G"/><use transform="matrix(0.010850694444444444,0,0,0.010850694444444444,61.1111111111111,0)" xlink:href="#F"/></g><g id="r"><use transform="matrix(0.010850694444444444,0,0,0.010850694444444444,0,0)" xlink:href="#W"/><use transform="matrix(0.010850694444444444,0,0,0.010850694444444444,12.565104166666666,0)" xlink:href="#F"/><use transform="matrix(0.010850694444444444,0,0,0.010850694444444444,25.520833333333332,0)" xlink:href="#O"/><use transform="matrix(0.010850694444444444,0,0,0.010850694444444444,39.127604166666664,0)" xlink:href="#X"/><use transform="matrix(0.010850694444444444,0,0,0.010850694444444444,50.85720486111111,0)" xlink:href="#M"/><use transform="matrix(0.010850694444444444,0,0,0.010850694444444444,63.33550347222221,0)" xlink:href="#T"/><use transform="matrix(0.010850694444444444,0,0,0.010850694444444444,76.96397569444443,0)" xlink:href="#F"/><use transform="matrix(0.010850694444444444,0,0,0.010850694444444444,89.91970486111111,0)" xlink:href="#D"/></g><g id="s"><use transform="matrix(0.010850694444444444,0,0,0.010850694444444444,0,0)" xlink:href="#J"/><use transform="matrix(0.010850694444444444,0,0,0.010850694444444444,9.038628472222221,0)" xlink:href="#B"/><use transform="matrix(0.010850694444444444,0,0,0.010850694444444444,23.057725694444443,0)" xlink:href="#K"/><use transform="matrix(0.010850694444444444,0,0,0.010850694444444444,29.459635416666664,0)" xlink:href="#A"/><use transform="matrix(0.010850694444444444,0,0,0.010850694444444444,43.185763888888886,0)" xlink:href="#B"/></g><g id="t"><use transform="matrix(0.010850694444444444,0,0,0.010850694444444444,0,0)" xlink:href="#A"/><use transform="matrix(0.010850694444444444,0,0,0.010850694444444444,13.726128472222221,0)" xlink:href="#B"/><use transform="matrix(0.010850694444444444,0,0,0.010850694444444444,27.745225694444443,0)" xlink:href="#B"/><use transform="matrix(0.010850694444444444,0,0,0.010850694444444444,41.764322916666664,0)" xlink:href="#C"/><use transform="matrix(0.010850694444444444,0,0,0.010850694444444444,53.96050347222222,0)" xlink:href="#D"/></g><path d="M157-1118h181V80c1 225-123 350-364 338V252c126 9 184-48 183-172v-1198zm91-183c-68 0-125-53-125-119s57-119 125-119c69 0 126 53 126 119s-57 119-126 119" id="af"/><g id="u"><use transform="matrix(0.010850694444444444,0,0,0.010850694444444444,0,0)" xlink:href="#af"/><use transform="matrix(0.010850694444444444,0,0,0.010850694444444444,5.381944444444445,0)" xlink:href="#M"/></g><path d="M678-1118v154H420V0H240v-964H20v-154h220v-149c0-194 155-293 318-293 85 0 141 18 168 30l-50 154c-19-6-47-17-97-17-111 0-159 58-159 166v109h258" id="ag"/><path d="M613 24c-304 0-509-231-509-576 0-350 205-580 509-580 305 0 511 230 511 580 0 345-206 576-511 576zm0-161c226 0 329-195 329-415 0-222-103-419-329-419-223 0-326 196-326 419 0 220 103 415 326 415" id="ah"/><g id="v"><use transform="matrix(0.010850694444444444,0,0,0.010850694444444444,0,0)" xlink:href="#R"/><use transform="matrix(0.010850694444444444,0,0,0.010850694444444444,5.381944444444445,0)" xlink:href="#N"/><use transform="matrix(0.010850694444444444,0,0,0.010850694444444444,18.51128472222222,0)" xlink:href="#ag"/><use transform="matrix(0.010850694444444444,0,0,0.010850694444444444,26.085069444444443,0)" xlink:href="#ah"/><use transform="matrix(0.010850694444444444,0,0,0.010850694444444444,39.40972222222222,0)" xlink:href="#K"/></g><path d="M338-670V0H158v-1490h180v566c73-149 190-208 336-208 226 0 379 139 379 422V0H872v-695c0-172-96-275-252-275-161 0-282 109-282 300" id="ai"/><g id="w"><use transform="matrix(0.010850694444444444,0,0,0.010850694444444444,0,0)" xlink:href="#ai"/><use transform="matrix(0.010850694444444444,0,0,0.010850694444444444,13.140190972222221,0)" xlink:href="#M"/><use transform="matrix(0.010850694444444444,0,0,0.010850694444444444,25.618489583333332,0)" xlink:href="#D"/></g><g id="x"><use transform="matrix(0.010850694444444444,0,0,0.010850694444444444,0,0)" xlink:href="#F"/><use transform="matrix(0.010850694444444444,0,0,0.010850694444444444,12.955729166666666,0)" xlink:href="#T"/><use transform="matrix(0.010850694444444444,0,0,0.010850694444444444,26.58420138888889,0)" xlink:href="#F"/><use transform="matrix(0.010850694444444444,0,0,0.010850694444444444,39.53993055555555,0)" xlink:href="#V"/></g><g id="y"><use transform="matrix(0.010850694444444444,0,0,0.010850694444444444,0,0)" xlink:href="#C"/><use transform="matrix(0.010850694444444444,0,0,0.010850694444444444,11.69704861111111,0)" xlink:href="#ah"/></g><g id="z"><use transform="matrix(0.010850694444444444,0,0,0.010850694444444444,0,0)" xlink:href="#D"/><use transform="matrix(0.010850694444444444,0,0,0.010850694444444444,8.713107638888888,0)" xlink:href="#V"/></g></defs></g></svg>